<?xml version="1.0" encoding="UTF-8"?>
<svg width="100px" height="100px" viewBox="0 0 100 100" version="1.1" xmlns="http://www.w3.org/2000/svg" xmlns:xlink="http://www.w3.org/1999/xlink">
    <title>about</title>
    <g id="about" stroke="none" stroke-width="1" fill="none" fill-rule="evenodd">
        <path d="M49.5289256,10 C60.1375852,10 70.3117417,14.2142736 77.8131969,21.7157288 C85.314652,29.2171839 89.5289256,39.3913404 89.5289256,50 C89.5289256,72.09139 71.6203156,90 49.5289256,90 C27.4375356,90 9.52892562,72.09139 9.52892562,50 C9.52892562,27.90861 27.4375356,10 49.5289256,10 Z M49.5289256,16.67 C31.1212749,16.67 16.1989256,31.5923493 16.1989256,50 C16.1989256,68.4076507 31.1212749,83.33 49.5289256,83.33 C67.927439,83.3079592 82.8368848,68.3985134 82.8589256,50 C82.8589256,31.5923493 67.9365763,16.67 49.5289256,16.67 Z M49.5289256,46.669985 C50.4138279,46.6673426 51.2633977,47.0170074 51.8900583,47.6417918 C52.516719,48.2665762 52.8689256,49.1150937 52.8689256,50 L52.8689256,50 L52.8689256,63.33 C52.8689256,65.1718696 51.3757953,66.665 49.5339256,66.665 C47.692056,66.665 46.1989256,65.1718696 46.1989256,63.33 L46.1989256,63.33 L46.1989256,50 C46.1989256,48.1608918 47.6898174,46.669985 49.5289256,46.669985 Z M49.5289256,33.34 C51.3680338,33.34 52.8589256,34.8308918 52.8589256,36.67 C52.8589256,38.5091082 51.3680338,40 49.5289256,40 C47.6898174,40 46.1989256,38.5091082 46.1989256,36.67 C46.1989256,34.8308918 47.6898174,33.34 49.5289256,33.34 Z" id="Combined-Shape" fill="#FFFFFF" fill-rule="nonzero"></path>
    </g>
</svg>