<?xml version="1.0" encoding="UTF-8"?>
<svg width="100px" height="100px" viewBox="0 0 100 100" version="1.1" xmlns="http://www.w3.org/2000/svg" xmlns:xlink="http://www.w3.org/1999/xlink">
    <title>add</title>
    <g id="add" stroke="none" stroke-width="1" fill="none" fill-rule="evenodd">
        <path d="M46.9230769,53.0769231 L46.9230769,65.3846154 C46.9230769,67.0839529 48.3006625,68.4615385 50,68.4615385 C51.6993375,68.4615385 53.0769231,67.0839529 53.0769231,65.3846154 L53.0769231,53.0769231 L65.3846154,53.0769231 C67.0839529,53.0769231 68.4615385,51.6993375 68.4615385,50 C68.4615385,48.3006625 67.0839529,46.9230769 65.3846154,46.9230769 L53.0769231,46.9230769 L53.0769231,34.6153846 C53.0769231,32.9160469 51.6993375,31.5384615 50,31.5384615 C48.3006625,31.5384615 46.9230769,32.9160469 46.9230769,34.6153846 L46.9230769,46.9230769 L34.6153846,46.9230769 C32.9160469,46.9230769 31.5384615,48.3006625 31.5384615,50 C31.5384615,51.6993375 32.9160469,53.0769231 34.6153846,53.0769231 L46.9230769,53.0769231 Z M50,10 C72.0913898,10 90,27.90861 90,50 C90,72.0913898 72.0913898,90 50,90 C27.90861,90 10,72.0913898 10,50 C10,27.90861 27.90861,10 50,10 Z" id="Shape" fill="#5E5E5E" fill-rule="nonzero"></path>
    </g>
</svg>