<?xml version="1.0" encoding="UTF-8"?>
<svg width="100px" height="100px" viewBox="0 0 100 100" version="1.1" xmlns="http://www.w3.org/2000/svg" xmlns:xlink="http://www.w3.org/1999/xlink">
    <title>add</title>
    <g id="add" stroke="none" stroke-width="1" fill="none" fill-rule="evenodd">
        <path d="M69.4889184,10 C76.6210683,10 79.2073582,10.7426049 81.8147656,12.1370616 C84.422173,13.5315184 86.4684816,15.577827 87.8629384,18.1852344 C89.2573951,20.7926418 90,23.3789317 90,30.5110816 L90,69.4889184 C90,76.6210683 89.2573951,79.2073582 87.8629384,81.8147656 C86.4684816,84.422173 84.422173,86.4684816 81.8147656,87.8629384 C79.2073582,89.2573951 76.6210683,90 69.4889184,90 L30.5110816,90 C23.3789317,90 20.7926418,89.2573951 18.1852344,87.8629384 C15.577827,86.4684816 13.5315184,84.422173 12.1370616,81.8147656 C10.7426049,79.2073582 10,76.6210683 10,69.4889184 L10,30.5110816 C10,23.3789317 10.7426049,20.7926418 12.1370616,18.1852344 C13.5315184,15.577827 15.577827,13.5315184 18.1852344,12.1370616 C20.7926418,10.7426049 23.3789317,10 30.5110816,10 L69.4889184,10 Z M50,28.5 C48.0670034,28.5 46.5,30.0670034 46.5,32 L46.5,32 L46.5,46.5 L32,46.5 L31.8079648,46.5051789 C29.9642776,46.6048736 28.5,48.1314366 28.5,50 C28.5,51.9329966 30.0670034,53.5 32,53.5 L32,53.5 L46.5,53.5 L46.5,68 L46.5051789,68.1920352 C46.6048736,70.0357224 48.1314366,71.5 50,71.5 C51.9329966,71.5 53.5,69.9329966 53.5,68 L53.5,68 L53.5,53.5 L68,53.5 L68.1920352,53.4948211 C70.0357224,53.3951264 71.5,51.8685634 71.5,50 C71.5,48.0670034 69.9329966,46.5 68,46.5 L68,46.5 L53.5,46.5 L53.5,32 L53.4948211,31.8079648 C53.3951264,29.9642776 51.8685634,28.5 50,28.5 Z" id="Shape" fill="#5E5E5E" fill-rule="nonzero"></path>
    </g>
</svg>