<?xml version="1.0" encoding="UTF-8"?>
<svg width="100px" height="100px" viewBox="0 0 100 100" version="1.1" xmlns="http://www.w3.org/2000/svg" xmlns:xlink="http://www.w3.org/1999/xlink">
    <title>cancel</title>
    <g id="cancel" stroke="none" stroke-width="1" fill="none" fill-rule="evenodd">
        <path d="M69.4889184,10 C76.6210683,10 79.2073582,10.7426049 81.8147656,12.1370616 C84.422173,13.5315184 86.4684816,15.577827 87.8629384,18.1852344 C89.2573951,20.7926418 90,23.3789317 90,30.5110816 L90,69.4889184 C90,76.6210683 89.2573951,79.2073582 87.8629384,81.8147656 C86.4684816,84.422173 84.422173,86.4684816 81.8147656,87.8629384 C79.2073582,89.2573951 76.6210683,90 69.4889184,90 L30.5110816,90 C23.3789317,90 20.7926418,89.2573951 18.1852344,87.8629384 C15.577827,86.4684816 13.5315184,84.422173 12.1370616,81.8147656 C10.7426049,79.2073582 10,76.6210683 10,69.4889184 L10,30.5110816 C10,23.3789317 10.7426049,20.7926418 12.1370616,18.1852344 C13.5315184,15.577827 15.577827,13.5315184 18.1852344,12.1370616 C20.7926418,10.7426049 23.3789317,10 30.5110816,10 L69.4889184,10 Z M65.2027958,34.7972042 C63.8359608,33.4303692 61.6198833,33.4303692 60.2530483,34.7972042 L60.2530483,34.7972042 L50,45.0502525 L39.7469517,34.7972042 L39.6075003,34.6650768 C38.2333218,33.4318879 36.1184781,33.4759304 34.7972042,34.7972042 C33.4303692,36.1640392 33.4303692,38.3801167 34.7972042,39.7469517 L34.7972042,39.7469517 L45.0502525,50 L34.7972042,60.2530483 L34.6650768,60.3924997 C33.4318879,61.7666782 33.4759304,63.8815219 34.7972042,65.2027958 C36.1640392,66.5696308 38.3801167,66.5696308 39.7469517,65.2027958 L39.7469517,65.2027958 L50,54.9497475 L60.2530483,65.2027958 L60.3924997,65.3349232 C61.7666782,66.5681121 63.8815219,66.5240696 65.2027958,65.2027958 C66.5696308,63.8359608 66.5696308,61.6198833 65.2027958,60.2530483 L65.2027958,60.2530483 L54.9497475,50 L65.2027958,39.7469517 L65.3349232,39.6075003 C66.5681121,38.2333218 66.5240696,36.1184781 65.2027958,34.7972042 Z" id="Shape" fill="#5E5E5E" fill-rule="nonzero"></path>
    </g>
</svg>