<?xml version="1.0" encoding="UTF-8"?>
<svg width="100px" height="100px" viewBox="0 0 100 100" version="1.1" xmlns="http://www.w3.org/2000/svg" xmlns:xlink="http://www.w3.org/1999/xlink">
    <title>directory</title>
    <g id="directory" stroke="none" stroke-width="1" fill="none" fill-rule="evenodd">
        <path d="M16.6666667,16 L32.2222222,16 L32.2222222,16 C34.3206042,16 36.2965263,16.987961 37.5555556,18.6666667 L40.2222222,22.2222222 L40.2222222,22.2222222 C41.4812514,23.9009279 43.4571736,24.8888889 45.5555556,24.8888889 L83.3333333,24.8888889 L83.3333333,24.8888889 C87.0152317,24.8888889 90,27.8736572 90,31.5555556 L90,78.2222222 L90,78.2222222 C90,81.9041206 87.0152317,84.8888889 83.3333333,84.8888889 L16.6666667,84.8888889 L16.6666667,84.8888889 C12.9847683,84.8888889 10,81.9041206 10,78.2222222 L10,22.6666667 L10,22.6666667 C10,18.9847683 12.9847683,16 16.6666667,16 Z" id="Path" fill="#5E5E5E" fill-rule="nonzero"></path>
    </g>
</svg>