<?xml version="1.0" encoding="UTF-8"?>
<svg width="100px" height="100px" viewBox="0 0 100 100" version="1.1" xmlns="http://www.w3.org/2000/svg" xmlns:xlink="http://www.w3.org/1999/xlink">
    <title>download</title>
    <g id="download" stroke="none" stroke-width="1" fill="none" fill-rule="evenodd">
        <path d="M50,10 C27.9368421,10 10,27.9368421 10,50 C10,72.0631579 27.9368421,90 50,90 C72.0631579,90 90,72.0631579 90,50 C90,27.9368421 72.0631579,10 50,10 Z M66.3368421,56.5684211 L52.6105263,70.2947368 C51.9368421,70.9684211 51.0105263,71.3894737 50,71.3894737 C48.9894737,71.3894737 48.1473684,70.9684211 47.3894737,70.2947368 L33.6631579,56.5684211 C32.2315789,55.1368421 32.2315789,52.8631579 33.6631579,51.4315789 C35.0947368,50 37.3684211,50 38.8,51.4315789 L46.3789474,59.0105263 L46.3789474,32.2315789 C46.3789474,30.2105263 47.9789474,28.6105263 50,28.6105263 C52.0210526,28.6105263 53.6210526,30.2105263 53.6210526,32.2315789 L53.6210526,59.0105263 L61.2,51.4315789 C62.6315789,50 64.9052632,50 66.3368421,51.4315789 C67.7684211,52.8631579 67.7684211,55.1368421 66.3368421,56.5684211 Z" id="Shape" fill="#5E5E5E" fill-rule="nonzero"></path>
    </g>
</svg>