<svg xmlns="http://www.w3.org/2000/svg" width="100" height="100" viewBox="0 0 100 100">
  <path fill="#FFF" d="M87.898314,43.6354057 L81.6601686,42.9610116 C79.2997893,42.7081138 77.3609062,41.1064278 76.4336143,38.914647 C76.4336143,38.914647 76.4336143,38.8303477 76.4336143,38.8303477 C75.5063224,36.6385669 75.7592202,34.109589 77.276607,32.3393045 L81.2386723,27.5342466 C81.8287671,26.7755532 81.8287671,25.6796628 81.0700738,25.0052687 L74.6633298,18.5985248 C73.9889357,17.9241307 72.8930453,17.8398314 72.1343519,18.4299262 L67.329294,22.3076923 C65.4747102,23.825079 62.9457323,24.0779768 60.7539515,23.1506849 C60.7539515,23.1506849 60.6696523,23.1506849 60.6696523,23.1506849 C58.4778714,22.223393 56.8761855,20.28451 56.6232877,17.9241307 L55.9488936,11.6859852 C55.8645943,10.7586934 55.0216017,10 54.0943098,10 L44.9899895,10 C44.0626976,10 43.219705,10.7586934 43.1354057,11.6859852 L42.4610116,17.9241307 C42.2081138,20.28451 40.6064278,22.223393 38.414647,23.1506849 C38.414647,23.1506849 38.3303477,23.1506849 38.3303477,23.1506849 C36.1385669,24.0779768 33.609589,23.825079 31.7550053,22.3076923 L26.9499473,18.4299262 C26.191254,17.8398314 25.0953635,17.8398314 24.4209694,18.5985248 L18.0142255,25.0052687 C17.3398314,25.6796628 17.2555321,26.7755532 17.845627,27.5342466 L21.8076923,32.3393045 C23.325079,34.1938883 23.5779768,36.6385669 22.6506849,38.8303477 C22.6506849,38.8303477 22.6506849,38.914647 22.6506849,38.914647 C21.723393,41.1064278 19.78451,42.7081138 17.4241307,42.9610116 L11.1859852,43.6354057 C10.2586934,43.719705 9.5,44.5626976 9.5,45.4899895 L9.5,54.5943098 C9.5,55.5216017 10.2586934,56.3645943 11.1859852,56.4488936 L17.4241307,57.1232877 C19.78451,57.3761855 21.723393,58.9778714 22.6506849,61.1696523 C22.6506849,61.1696523 22.6506849,61.2539515 22.6506849,61.2539515 C23.5779768,63.4457323 23.325079,65.9747102 21.8076923,67.7449947 L17.845627,72.5500527 C17.2555321,73.308746 17.2555321,74.4046365 18.0142255,75.0790306 L24.4209694,81.4857745 C25.0953635,82.1601686 26.191254,82.2444679 26.9499473,81.654373 L31.7550053,77.6923077 C33.609589,76.174921 36.0542677,75.9220232 38.2460485,76.8493151 C38.2460485,76.8493151 38.3303477,76.8493151 38.3303477,76.8493151 C40.5221286,77.776607 42.1238145,79.71549 42.3767123,82.0758693 L43.0511064,88.3140148 C43.1354057,89.2413066 43.9783983,90 44.9056902,90 L54.0100105,90 C54.9373024,90 55.780295,89.2413066 55.8645943,88.3140148 L56.5389884,82.0758693 C56.7918862,79.71549 58.3935722,77.776607 60.585353,76.8493151 C60.585353,76.8493151 60.6696523,76.8493151 60.6696523,76.8493151 C62.8614331,75.9220232 65.390411,76.174921 67.1606955,77.6923077 L71.9657534,81.654373 C72.7244468,82.2444679 73.8203372,82.2444679 74.4947313,81.4857745 L80.9014752,75.0790306 C81.5758693,74.4046365 81.6601686,73.308746 81.0700738,72.5500527 L77.276607,67.7449947 C75.7592202,65.890411 75.5063224,63.4457323 76.4336143,61.2539515 C76.4336143,61.2539515 76.4336143,61.1696523 76.4336143,61.1696523 C77.3609062,58.9778714 79.2997893,57.3761855 81.6601686,57.1232877 L87.898314,56.4488936 C88.8256059,56.3645943 89.5842993,55.5216017 89.5842993,54.5943098 L89.5842993,45.4899895 C89.5842993,44.5626976 88.8256059,43.719705 87.898314,43.6354057 Z M49.5421496,63.9515279 C41.8709168,63.9515279 35.6327713,57.7133825 35.6327713,50.0421496 C35.6327713,42.3709168 41.8709168,36.1327713 49.5421496,36.1327713 C57.2133825,36.1327713 63.4515279,42.3709168 63.4515279,50.0421496 C63.4515279,57.7133825 57.2133825,63.9515279 49.5421496,63.9515279 Z"/>
</svg>
