<?xml version="1.0" encoding="UTF-8"?>
<svg width="100px" height="100px" viewBox="0 0 100 100" version="1.1" xmlns="http://www.w3.org/2000/svg" xmlns:xlink="http://www.w3.org/1999/xlink">
    <title>install</title>
    <g id="install" stroke="none" stroke-width="1" fill="none" fill-rule="evenodd">
        <path d="M69.4889184,8 C76.6210683,8 79.2073582,8.74260489 81.8147656,10.1370616 C84.422173,11.5315184 86.4684816,13.577827 87.8629384,16.1852344 C89.2573951,18.7926418 90,21.3789317 90,28.5110816 L90,67.4889184 C90,74.6210683 89.2573951,77.2073582 87.8629384,79.8147656 C86.4684816,82.422173 84.422173,84.4684816 81.8147656,85.8629384 C79.2073582,87.2573951 76.6210683,88 69.4889184,88 L30.5110816,88 C23.3789317,88 20.7926418,87.2573951 18.1852344,85.8629384 C15.577827,84.4684816 13.5315184,82.422173 12.1370616,79.8147656 C10.7426049,77.2073582 10,74.6210683 10,67.4889184 L10,28.5110816 C10,21.3789317 10.7426049,18.7926418 12.1370616,16.1852344 C13.5315184,13.577827 15.577827,11.5315184 18.1852344,10.1370616 C20.7926418,8.74260489 23.3789317,8 30.5110816,8 L69.4889184,8 Z M50,27.5 C48.0670034,27.5 46.5,29.0670034 46.5,31 L46.5,31 L46.499987,58.12 L38.5586934,49.6118861 L38.4140301,49.4655974 C37.0825998,48.1950834 34.9745447,48.1694919 33.6118861,49.4413066 C32.1987588,50.7602254 32.1223877,52.9749865 33.4413066,54.3881139 L33.4413066,54.3881139 L47.4413066,69.3881139 L47.450987,69.398 L47.4655974,69.4140301 L47.5094643,69.4591126 L47.5094643,69.4591126 L47.5438536,69.4934613 L47.5859699,69.5344026 C47.5914851,69.5396654 47.5970136,69.5449069 47.6025554,69.550127 L47.6025554,69.550127 L47.6118861,69.5586934 L47.6118861,69.5586934 L47.6272802,69.5729992 C47.6531286,69.5968477 47.6793373,69.6203115 47.7057216,69.643532 C47.7219571,69.6576572 47.7382945,69.6716088 47.7547313,69.6853868 L47.7547313,69.6853868 L47.7662828,69.6946697 C47.7721819,69.6995688 47.7780929,69.7044454 47.7839113,69.7091856 C47.7961127,69.719178 47.8083829,69.7290897 47.8203086,69.7390189 C47.8521128,69.7643934 47.8842657,69.7891373 47.9175728,69.8133702 L47.9175728,69.8133702 L48.0057629,69.8771759 C48.0258424,69.8911224 48.0460383,69.9048361 48.0663316,69.9178043 C48.1266784,69.9578771 48.1883399,69.9961278 48.2515188,70.0328632 C48.2733412,70.0454698 48.2952676,70.05782 48.3168987,70.0694863 C48.3461321,70.0855501 48.3756198,70.1012084 48.4056034,70.1167615 L48.4056034,70.1167615 L48.4979584,70.1622137 C48.5166997,70.1711317 48.5355328,70.1798879 48.554456,70.1884807 L48.554456,70.1884807 L48.5719431,70.196403 C48.5841351,70.2018436 48.5963525,70.2072113 48.6140517,70.2149375 L48.6140517,70.2149375 L48.6361378,70.224316 C48.6785026,70.2422582 48.7212941,70.2593899 48.7642178,70.2755576 C48.7898427,70.2852141 48.8155554,70.2945579 48.8413541,70.3036672 L48.8807807,70.3171888 L48.8807807,70.3171888 L48.9203295,70.3299823 C48.9319851,70.3337497 48.943657,70.3374546 48.9553447,70.3410971 L48.9553447,70.3410971 L48.9798653,70.3488569 C48.9927707,70.3527777 49.0056937,70.3566219 49.0182098,70.360426 C49.0470507,70.3688381 49.0760456,70.376889 49.1057837,70.3843134 C49.1174326,70.3873795 49.1290948,70.3903849 49.1407696,70.3933294 L49.1407696,70.3933294 L49.166639,70.3999832 L49.166639,70.3999832 L49.1888961,70.4055367 C49.2213949,70.4132481 49.2540692,70.4205063 49.2875489,70.4270132 C49.3034903,70.430313 49.3194511,70.4335012 49.33543,70.4365777 L49.33543,70.4365777 L49.355372,70.4405753 C49.3626883,70.4419389 49.3700079,70.443279 49.3768948,70.4446983 C49.420999,70.4526234 49.4653901,70.4597224 49.5104671,70.4658988 C49.5311543,70.4688023 49.5518612,70.4715203 49.5722616,70.4741248 L49.5722616,70.4741248 L49.6485764,70.4823599 L49.6485764,70.4823599 L49.7127191,70.4882148 L49.7368601,70.4902206 C49.7534939,70.4914642 49.7701341,70.4925892 49.7867898,70.4936124 L49.7867898,70.4936124 L49.845,70.496 L49.874,70.497 L49.953,70.499 L49.946,70.499 L50,70.5 L49.953,70.499 L49.9586815,70.4997793 L50,70.5 L50.0383191,70.4998126 C50.0636481,70.4995424 50.0889764,70.4989988 50.120618,70.497921 L50.120618,70.497921 L50.1332905,70.4975175 C50.1436184,70.4971285 50.1539452,70.4966939 50.1642706,70.4962137 L50.1642706,70.4962137 L50.1920352,70.4948211 C50.1990991,70.4944392 50.2061575,70.4940362 50.2132207,70.4935958 C50.2382321,70.4920833 50.2632321,70.4903034 50.2882161,70.4882557 L50.2882161,70.4882557 L50.3121881,70.4860818 C50.3246016,70.4849743 50.3370099,70.4838009 50.3495098,70.4827673 L50.3495098,70.4827673 L50.4214155,70.4747806 C50.4451479,70.471922 50.4688583,70.4688201 50.4925426,70.465475 L50.4925426,70.465475 L50.5029338,70.4638043 C50.505603,70.4634185 50.5082718,70.4630295 50.5109415,70.4629729 C50.5505569,70.4571784 50.5899567,70.4507204 50.6286599,70.4435132 L50.6286599,70.4435132 L50.6586652,70.4379294 L50.6923911,70.4311046 L50.6923911,70.4311046 L50.7140834,70.4270982 C50.745242,70.4206393 50.7762489,70.4137661 50.8065082,70.4064267 C50.8255248,70.4019429 50.8445123,70.3972977 50.8634687,70.392491 L50.8634687,70.392491 L50.880096,70.3879986 C50.8848049,70.3867801 50.8895117,70.3855517 50.8948108,70.3845735 C50.9246306,70.3767107 50.9542947,70.3684643 50.983357,70.3598095 L50.983357,70.3598095 L51.0433205,70.3417246 L51.0655846,70.3345023 C51.069947,70.3331127 51.0743071,70.3317143 51.0785608,70.3306631 C51.1057374,70.321869 51.1327684,70.3127515 51.1596483,70.3032397 C51.1844315,70.2945539 51.209139,70.2855796 51.2337656,70.2763168 L51.2337656,70.2763168 L51.2483929,70.2706318 C51.249736,70.2701203 51.2510788,70.2696079 51.2523629,70.2692809 L51.2523629,70.2692809 L51.3660534,70.2234399 C51.3753768,70.2194897 51.384687,70.215497 51.3939836,70.2114618 L51.3939836,70.2114618 L51.4280569,70.196403 L51.4280569,70.196403 L51.4968219,70.1648242 C51.5291957,70.149503 51.5613884,70.1336546 51.5932238,70.1174203 L51.5992126,70.1143192 L51.6084515,70.1093364 L51.6084515,70.1093364 L51.6827063,70.069914 C51.7047324,70.05782 51.7266588,70.0454698 51.7487624,70.0324779 C51.8116601,69.9961278 51.8733216,69.9578771 51.9336532,69.9183168 C51.9616333,69.8997438 51.9893997,69.8807284 52.0168227,69.8608478 C52.0360882,69.8472412 52.0552102,69.833445 52.0745163,69.8197117 C52.1080713,69.7949662 52.1412756,69.7695495 52.1735571,69.7434689 C52.1943863,69.7269444 52.2150231,69.7101876 52.2362157,69.6929495 C52.2550295,69.6772865 52.2737143,69.6613971 52.2917345,69.645437 C52.3201547,69.6207953 52.3481737,69.5957032 52.3757806,69.5701719 L52.3757806,69.5701719 L52.3881139,69.5586934 L52.3881139,69.5586934 L52.3974277,69.5499694 L52.4140301,69.5344026 L52.4591126,69.4905357 C52.4703117,69.479477 52.4814366,69.4683434 52.4923813,69.4573213 C52.5125442,69.4368998 52.5324067,69.4162869 52.5586934,69.3881139 L52.5586934,69.3881139 L66.5586934,54.3881139 L66.6946697,54.2337172 C67.8704522,52.8179319 67.7507724,50.7131212 66.3881139,49.4413066 C64.9749865,48.1223877 62.7602254,48.1987588 61.4413066,49.6118861 L61.4413066,49.6118861 L53.499987,58.119 L53.5,31 L53.4948211,30.8079648 C53.3951264,28.9642776 51.8685634,27.5 50,27.5 Z" id="Shape" fill="#5E5E5E" fill-rule="nonzero"></path>
    </g>
</svg>