<?xml version="1.0" encoding="UTF-8"?>
<svg width="100px" height="100px" viewBox="0 0 100 100" version="1.1" xmlns="http://www.w3.org/2000/svg" xmlns:xlink="http://www.w3.org/1999/xlink">
    <title>list</title>
    <g id="list" stroke="none" stroke-width="1" fill="none" fill-rule="evenodd">
        <path d="M82,10 C86.418278,10 90,13.581722 90,18 L90,82 C90,86.418278 86.418278,90 82,90 L18,90 C13.581722,90 10,86.418278 10,82 L10,18 C10,13.581722 13.581722,10 18,10 L82,10 Z M30.4745457,67 C30.0699939,67 29.6820229,67.1607486 29.396035,67.4468608 L25.0009259,71.8421495 L20.6058291,67.4468608 C20.009855,66.8531635 19.0456754,66.854067 18.4508153,67.4488804 C17.8559553,68.0436937 17.8550516,69.0077977 18.4487956,69.6037249 L22.8440511,73.9990868 L18.4487956,78.3943755 C18.062274,78.7794206 17.9108776,79.3415846 18.0517605,79.8686427 C18.1926435,80.3957009 18.6043466,80.8073716 19.1314461,80.9482435 C19.6585457,81.0891154 20.2207538,80.9377309 20.6058291,80.5512396 L25.0009259,76.1559509 L29.396035,80.5512396 C29.9916834,81.1468378 30.9574174,81.1468351 31.5530624,80.5512335 C32.1487074,79.955632 32.1487046,78.9899737 31.5530563,78.3943755 L27.157813,73.9990868 L31.5530563,69.6037981 C31.8392202,69.3178308 32,68.9298714 32,68.5253295 C32,68.1207875 31.8392202,67.7328281 31.5530563,67.4468608 C31.2670684,67.1607486 30.8790975,67 30.4745457,67 Z M81.4782127,72.5 L41.5217873,72.5 C40.6813274,72.5 40,73.1715729 40,74 C40,74.8284271 40.6813274,75.5 41.5217873,75.5 L81.4782127,75.5 C82.3186726,75.5 83,74.8284271 83,74 C83,73.1715729 82.3186726,72.5 81.4782127,72.5 Z M30.3836672,43.4593248 L22.8504694,51.1965972 L19.6183586,47.8769411 C19.0193753,47.2617278 18.0482286,47.261725 17.4492419,47.8769348 C16.8502551,48.4921446 16.8502524,49.4895997 17.4492357,50.104813 L21.7659079,54.538424 C22.0535008,54.8339581 22.4436482,55 22.8504694,55 C23.2572906,55 23.647438,54.8339581 23.9350308,54.538424 L32.5527902,45.6872093 C33.1498619,45.0716596 33.1489532,44.07581 32.5507591,43.4614108 C31.9525651,42.8470117 30.9829815,42.8460783 30.3836672,43.4593248 Z M81.4782127,48.5 L41.5217873,48.5 C40.6813274,48.5 40,49.1715729 40,50 C40,50.8284271 40.6813274,51.5 41.5217873,51.5 L81.4782127,51.5 C82.3186726,51.5 83,50.8284271 83,50 C83,49.1715729 82.3186726,48.5 81.4782127,48.5 Z M30.3836672,19.4593267 L22.8504694,27.1965812 L19.6183587,23.8769112 C19.0193753,23.2616952 18.0482286,23.2616924 17.4492419,23.8769049 C16.8502551,24.4921173 16.8502524,25.4895765 17.4492357,26.1047925 L21.7659079,30.5384221 C22.0535008,30.8339574 22.4436482,31 22.8504694,31 C23.2572906,31 23.647438,30.8339574 23.9350309,30.5384221 L32.5527902,21.6872206 C33.1498619,21.0716683 33.1489532,20.0758145 32.5507591,19.4614128 C31.9525651,18.847011 30.9829815,18.8460777 30.3836672,19.4593267 Z M81.4782127,24.5 L41.5217873,24.5 C40.6813274,24.5 40,25.1715729 40,26 C40,26.8284271 40.6813274,27.5 41.5217873,27.5 L81.4782127,27.5 C82.3186726,27.5 83,26.8284271 83,26 C83,25.1715729 82.3186726,24.5 81.4782127,24.5 Z" id="Combined-Shape" fill="#5E5E5E"></path>
    </g>
</svg>