<svg xmlns="http://www.w3.org/2000/svg" width="250" height="100" viewBox="0 0 250 100">
  <path fill="#FFF" d="M130.312406 36.5L130.312406 53.0413534C130.312406 54.6954887 130.519173 55.5639098 131.180827 56.6390977 132.256015 58.4586466 134.282331 59.6578947 136.515414 59.6578947 138.748496 59.6578947 140.816165 58.4586466 141.891353 56.6390977 142.553008 55.5639098 142.759774 54.5714286 142.759774 53.0413534L142.759774 53.0413534 142.759774 36.5 147.72218 36.5 147.72218 53.0413534C147.72218 59.8233083 143.049248 64.7030075 136.515414 64.7030075 130.022932 64.7030075 125.35 59.8233083 125.35 53.0413534L125.35 53.0413534 125.35 36.5 130.312406 36.5zM159.797368 36.5L172.492857 54.7781955 172.492857 36.5 177.28985 36.5 177.28985 64.2067669 172.989098 64.2067669 159.797368 45.1428571 159.797368 64.2067669 154.917669 64.2067669 154.917669 36.5 159.797368 36.5zM193.417669 36.5C195.774812 36.5 198.007895 37.0789474 200.034211 38.2368421 204.334962 40.6766917 206.650752 44.8533835 206.650752 50.3120301 206.650752 55.8533835 204.334962 60.112782 199.951504 62.5526316 198.007895 63.6278195 195.650752 64.2067669 193.417669 64.2067669L193.417669 64.2067669 184.485338 64.2067669 184.485338 36.5zM193.417669 41.462406L189.530451 41.462406 189.530451 59.2443609 193.417669 59.2443609C194.906391 59.2443609 196.229699 58.8721805 197.428947 58.1691729 200.323684 56.6390977 201.688346 54.1165414 201.688346 50.3120301 201.688346 46.5902256 200.323684 44.0676692 197.594361 42.537594 196.353759 41.8345865 194.906391 41.462406 193.417669 41.462406L193.417669 41.462406zM225.714662 36.5C227.740977 36.5 229.022932 36.7894737 230.470301 37.6578947 233.116917 39.1052632 234.771053 41.8345865 234.771053 44.9774436 234.771053 48.0789474 233.116917 50.8082707 230.263534 52.3383459L230.263534 52.3383459 235.35 64.2067669 229.808647 64.2067669 225.342481 53.3308271 217.940226 53.3308271 217.940226 64.2067669 212.97782 64.2067669 212.97782 36.5zM225.797368 41.462406L217.940226 41.462406 217.940226 48.3684211 225.797368 48.3684211C228.237218 48.3684211 229.808647 47.0037594 229.808647 44.9774436 229.808647 42.8270677 228.237218 41.462406 225.797368 41.462406L225.797368 41.462406zM48.1234594 31.2567473C58.1771777 19.6751568 70.9041028 20.2246698 78.9997157 33.2393195 81.1247304 36.6534319 84.5876939 38.3740505 86.9515159 37.9194167 89.315338 37.4662026 88.9571021 35.8419654 91.4647534 35.3887514 88.3844595 33.931374 85.8536787 32.5228477 85.1372069 30.1590256 87.4060342 29.9202017 90.7007347 31.1848822 93.5897515 34.1470683 93.9954352 33.9788053 94.2112451 33.5500085 94.5219342 33.8593933 95.6916365 35.0305155 101.637834 37.7281396 103.906661 40.6414746 104.168615 40.9522792 103.835011 42.0500042 103.452143 42.0988553 101.422123 42.313262 99.2251609 42.0988553 97.1965608 42.5276521 96.0498724 42.5993026 95.0945767 42.7678958 93.9479874 42.8153271 92.7307547 44.127571 91.8474231 45.7762255 90.198653 46.3963984 88.6707313 47.447993 88.1686496 48.8565193 87.1183592 50.3844576 85.9962202 52.0087938 84.0380654 52.9871036 81.88865 53.0835015 80.1463051 55.7335788 78.4270897 58.861436 76.6833415 61.5129331 76.1338285 62.443795 75.0835381 62.9214594 74.3670498 62.7056495 73.9843966 62.61011 73.5311661 62.2524189 73.2448613 61.7273232 72.95854 61.2021285 72.8391281 60.4137916 73.1254328 59.4353663 73.9138358 60.0324261 73.7224927 61.3215405 75.1079719 61.0352852 75.5856198 58.1449642 76.0862817 54.4920278 76.5883468 51.6029946 75.3698099 51.4117175 74.2232206 50.7196795 73.0304547 50.5514164 71.8838323 52.0562251 70.9529374 53.4647514 69.8293786 54.9696757 70.2595456 59.7447511 70.1401172 68.6762643 71.8363185 69.3683188 77.375396 71.6371462 83.5374035 73.3320433 90.0086802 74.9332499 90.6057566 74.861616 91.2028164 74.7894207 91.8229893 74.7418738 92.4674969 75.3864805 93.3509276 75.8165815 93.8054624 76.7230262 93.4472265 76.7230262 93.0889906 76.7230262 92.7307547 76.7230262 92.5869089 77.0107012 92.4674969 77.320086 92.348085 77.6308906 90.4863446 77.8941483 88.5988662 77.5114786 86.7601233 76.5561829 81.2210128 75.5777576 75.8000099 74.575014 70.2364656 73.834125 68.5646981 73.6197183 67.9432044 71.9479508 67.3705784 69.870384 65.6743771 63.7803572 63.287475 58.5032001 60.7554064 53.7999733 55.5270344 52.1756371 51.1806898 47.137304 47.7652235 44.0570102 36.3749101 50.7426935 19.4210523 61.5603644 14 43.1491457 24.2925587 60.6526155 38.0697577 42.8384567 48.1234594 31.2567473z"/>
</svg>
