<svg xmlns="http://www.w3.org/2000/svg" width="100" height="100" viewBox="0 0 100 100"><path fill="#FFF" d="M35.2428163,17 C37.5589163,17 39.7603899,17.9838641 41.3012072,19.6961685 L41.4983918,19.9236226 L45.0288245,24.1504798 C45.5014204,24.7162803 46.1827509,25.0636475 46.9132306,25.1176129 L47.113551,25.125 L79.8571429,25.125 C84.2711976,25.125 87.8646887,28.6290481 87.9962672,33.0015879 L88,33.25 L88,73.875 C88,78.2793748 84.4882507,81.8649854 80.1061009,81.9962754 L79.8571429,82 L20.1428571,82 C15.7288024,82 12.1353113,78.4959519 12.0037328,74.1234121 L12,73.875 L12,25.125 C12,20.7206252 15.5117493,17.1350146 19.8938991,17.0037246 L20.1428571,17 L35.2428163,17 Z M35.2428163,21 L20.1428571,21 C17.9220928,21 16.1126862,22.7382903 16.0050645,24.9192752 L16,25.125 L16,73.875 C16,76.0823881 17.7421107,77.887569 19.935905,77.9949469 L20.1428571,78 L79.8571429,78 C82.0779072,78 83.8873138,76.2617097 83.9949355,74.0807248 L84,73.875 L84,33.25 C84,31.0426119 82.2578893,29.237431 80.064095,29.1300531 L79.8571429,29.125 L47.113551,29.125 C45.2179375,29.125 43.414715,28.3241708 42.1451885,26.9284596 L41.9588174,26.714667 L38.4280884,22.487455 C37.6907067,21.6044076 36.618723,21.0697406 35.4728903,21.0063566 L35.2428163,21 Z"/></svg>