<svg xmlns="http://www.w3.org/2000/svg" width="100" height="100" viewBox="0 0 100 100"><path fill="#FFF" d="M59.595341,14.0359624 C58.2383365,12.6789579 56.3384845,12 54.4386326,12 L34.0817419,12 C27.0244982,12 21.188718,17.8355524 21.188718,24.8930239 L21.188718,75.1069761 C21.188718,82.1642198 27.0242704,88 34.0817419,88 L66.6525847,88 C73.7098285,88 79.5456087,82.1644476 79.5456087,75.1069761 L79.5447189,36.0233315 C79.5447189,33.9873691 78.7305162,31.9523179 77.2373328,30.5953133 L59.595341,14.0359624 Z M75.4727726,75.1068622 C75.4727726,79.992033 71.5370722,83.9279613 66.6516735,83.9279613 L34.0808307,83.9279613 C29.1956599,83.9279613 25.2597317,79.9922608 25.2597317,75.1068622 L25.2597317,24.89291 C25.2597317,20.0077392 29.1954321,16.0718109 34.0808307,16.0718109 L54.5739458,16.0718109 L54.5739458,28.2857631 C54.5739458,32.3567768 57.9670267,35.7498576 62.0380403,35.7498576 L75.4736838,35.7498576 L75.4736838,36.0212585 L75.4727726,75.1068622 Z"/></svg>