<svg xmlns="http://www.w3.org/2000/svg" width="130" height="130" viewBox="0 0 130 130"><path fill="#FFAF00" d="M65.7711968,1.77119679 L121.219102,57.2191022 C123.580698,59.5806979 123.580698,63.4096011 121.219102,65.7711968 L65.7711968,121.219102 C63.4096011,123.580698 59.5806979,123.580698 57.2191022,121.219102 L1.77119679,65.7711968 C-0.590398929,63.4096011 -0.590398929,59.5806979 1.77119679,57.2191022 L57.2191022,1.77119679 C59.5806979,-0.590398929 63.4096011,-0.590398929 65.7711968,1.77119679 Z M64.9159734,2.62266135 C63.0266968,0.733384779 59.9635742,0.733384779 58.0742977,2.62266135 L58.0742977,2.62266135 L2.62264002,58.074319 C0.733363446,59.9635956 0.733363446,63.0267181 2.62264002,64.9159947 L2.62264002,64.9159947 L58.0742977,120.367652 C59.9635742,122.256929 63.0266968,122.256929 64.9159734,120.367652 L64.9159734,120.367652 L120.367631,64.9159947 C122.256908,63.0267181 122.256908,59.9635956 120.367631,58.074319 L120.367631,58.074319 Z M63.2055428,4.32560676 L118.664705,59.7847689 C119.609343,60.7294072 119.609343,62.2609685 118.664705,63.2056068 L63.2055428,118.664769 C62.2609045,119.609407 60.7293432,119.609407 59.7847049,118.664769 L4.32554276,63.2056068 C3.38090447,62.2609685 3.38090447,60.7294072 4.32554276,59.7847689 L59.7847049,4.32560676 C60.7293432,3.38096847 62.2609045,3.38096847 63.2055428,4.32560676 Z M73.2890336,47.0668266 C65.8918896,35.1750479 54.2630113,34.6729456 45.0767024,45.2553058 C43.6987583,46.8426761 42.2442638,48.5581779 40.7354473,50.2736783 L40.1290762,50.9595747 L40.1290762,50.9595747 L39.5172269,51.6436486 C31.2217066,60.8581445 21.5150082,69.0762432 13.8973285,56.1216582 C18.8506662,72.9444036 34.3417881,63.0600539 44.7493742,56.9511944 C47.8701626,59.7657283 51.8415157,64.3693668 56.618797,65.8535594 C58.9324051,70.1510037 61.1133713,74.972861 62.6632287,80.5374558 C63.18645,82.4357754 63.7543228,83.9633071 65.2818544,84.1592152 C70.3653903,84.8361823 75.3186827,85.7524117 80.3798929,86.6464209 C82.0599937,87.5192962 83.7846252,87.8689501 85.4857393,87.6284056 C85.5948487,87.3444164 85.7039582,87.0617245 85.8353933,86.7988694 L85.8353933,86.7988694 L86.8173779,86.7988694 C86.4020592,85.9706305 85.5948487,85.5776375 85.0059476,84.9886458 C84.4392816,85.0320905 83.8937346,85.0980569 83.3481725,85.1635105 C77.4352211,83.7004519 71.8048561,82.1517862 66.7436761,80.0787075 C65.76784,79.6805639 65.4496798,76.2978395 65.2497565,72.7576772 L65.2155935,72.1318838 C65.2100677,72.0275043 65.2046166,71.9231325 65.1992267,71.8188403 L65.1675106,71.1946177 C65.0895045,69.6393265 65.0190713,68.1343134 64.9098899,66.9223428 C65.9365109,65.5472596 66.7870906,64.2602574 67.8347852,62.8852798 C68.9246423,63.0390255 69.9723068,63.6713562 71.0857115,63.8461304 C70.6269632,66.4859052 70.1694972,69.8236755 69.7330596,72.4646269 C68.4671159,72.7261848 68.6419504,71.548292 67.9215689,71.002745 C67.6599658,71.8967542 67.7690752,72.6170754 68.0306934,73.0969577 C68.2922965,73.5767494 68.7064235,73.9035798 69.0560623,73.9908764 C69.7107339,74.1880668 70.6704079,73.7516141 71.1725103,72.9010646 C72.7658123,70.4783319 74.3366981,67.6203383 75.9287179,65.198903 C77.8926872,65.110822 79.6818974,64.2169184 80.7072211,62.7327257 C81.6668951,61.3366141 82.1256584,60.0496119 83.521755,59.0887462 C85.0282733,58.5220802 85.8353933,57.0156675 86.9476062,55.8166406 C87.9952707,55.7733016 88.868146,55.6192541 89.915901,55.5537855 C91.7694786,55.1619842 93.7768926,55.3578924 95.6317675,55.1619842 C95.9816025,55.1173478 96.286424,54.1143318 96.0470712,53.8303426 C93.9739925,51.1683628 88.5408178,48.7034828 87.4720344,47.6334021 C87.1881508,47.3507102 86.9909604,47.7425115 86.620278,47.8962572 C83.9805183,45.189641 80.9700762,44.0340739 78.8969975,44.2522927 C79.551654,46.4121702 81.8640855,47.6991724 84.6786194,49.030811 C82.3873219,49.4449229 82.7146501,50.929025 80.5547726,51.3431369 C78.3948952,51.7585461 75.2307073,50.1863781 73.2890336,47.0668266 Z" transform="translate(3.505 3.505)"/></svg>