<svg xmlns="http://www.w3.org/2000/svg" width="130" height="180" viewBox="0 0 130 180"><path fill="#FFAF00" d="M69.2760473 2.27604731 124.723953 57.7239527C127.085548 60.0855484 127.085548 63.9144516 124.723953 66.2760473L69.2760473 121.723953C66.9144516 124.085548 63.0855484 124.085548 60.7239527 121.723953L5.27604731 66.2760473C2.91445159 63.9144516 2.91445159 60.0855484 5.27604731 57.7239527L60.7239527 2.27604731C63.0855484-.0855484103 66.9144516-.0855484103 69.2760473 2.27604731ZM68.4208239 3.12751187C66.5315473 1.2382353 63.4684248 1.2382353 61.5791482 3.12751187L61.5791482 3.12751187 6.12749054 58.5791695C4.23821397 60.4684461 4.23821397 63.5315686 6.12749054 65.4208452L6.12749054 65.4208452 61.5791482 120.872503C63.4684248 122.761779 66.5315473 122.761779 68.4208239 120.872503L68.4208239 120.872503 123.872482 65.4208452C125.761758 63.5315686 125.761758 60.4684461 123.872482 58.5791695L123.872482 58.5791695ZM66.7103933 4.83045728 122.169555 60.2896194C123.114194 61.2342577 123.114194 62.765819 122.169555 63.7104573L66.7103933 119.169619C65.765755 120.114258 64.2341937 120.114258 63.2895554 119.169619L7.83039328 63.7104573C6.88575499 62.765819 6.88575499 61.2342577 7.83039328 60.2896194L63.2895554 4.83045728C64.2341937 3.88581899 65.765755 3.88581899 66.7103933 4.83045728ZM76.7938841 47.5716772C69.3967401 35.6798985 57.7678619 35.1777961 48.5815529 45.7601563 47.2036088 47.3475266 45.7491143 49.0630284 44.2402978 50.7785288L43.6339267 51.4644252 43.6339267 51.4644252 43.0220775 52.1484992C34.7265571 61.362995 25.0198587 69.5810937 17.402179 56.6265087 22.3555167 73.4492541 37.8466386 63.5649045 48.2542247 57.4560449 51.3750131 60.2705788 55.3463662 64.8742173 60.1236475 66.3584099 62.4372556 70.6558542 64.6182219 75.4777116 66.1680792 81.0423063 66.6913005 82.9406259 67.2591733 84.4681576 68.786705 84.6640658 73.8702408 85.3410328 78.8235332 86.2572622 83.8847434 87.1512714 85.5648442 88.0241467 87.2894757 88.3738006 88.9905899 88.1332561 89.0996993 87.8492669 89.2088087 87.566575 89.3402438 87.3037199L89.3402438 87.3037199 90.3222284 87.3037199C89.9069097 86.475481 89.0996993 86.082488 88.5107981 85.4934964 87.9441322 85.536941 87.3985851 85.6029075 86.853023 85.668361 80.9400717 84.2053024 75.3097066 82.6566367 70.2485266 80.583558 69.2726905 80.1854144 68.9545303 76.80269 68.7546071 73.2625277L68.7204441 72.6367343C68.7149182 72.5323548 68.7094671 72.427983 68.7040772 72.3236908L68.6723611 71.6994683C68.5943551 70.144177 68.5239219 68.6391639 68.4147404 67.4271934 69.4413614 66.0521101 70.2919411 64.7651079 71.3396357 63.3901303 72.4294928 63.5438761 73.4771573 64.1762068 74.590562 64.3509809 74.1318137 66.9907557 73.6743477 70.328526 73.2379101 72.9694775 71.9719665 73.2310353 72.146801 72.0531425 71.4264194 71.5075955 71.1648163 72.4016047 71.2739257 73.1219259 71.5355439 73.6018082 71.797147 74.0815999 72.211274 74.4084303 72.5609129 74.4957269 73.2155844 74.6929173 74.1752584 74.2564646 74.6773608 73.4059151 76.2706628 70.9831825 77.8415486 68.1251888 79.4335684 65.7037535 81.3975377 65.6156725 83.1867479 64.7217689 84.2120716 63.2375762 85.1717456 61.8414646 85.6305089 60.5544624 87.0266055 59.5935967 88.5331238 59.0269307 89.3402438 57.520518 90.4524568 56.3214911 91.5001213 56.2781521 92.3729965 56.1241046 93.4207515 56.058636 95.2743292 55.6668347 97.2817431 55.8627429 99.1366181 55.6668347 99.486453 55.6221984 99.7912745 54.6191823 99.5519217 54.3351931 97.478843 51.6732133 92.0456683 49.2083333 90.9768849 48.1382526 90.6930013 47.8555607 90.4958109 48.247362 90.1251286 48.4011078 87.4853688 45.6944915 84.4749268 44.5389244 82.4018481 44.7571433 83.0565045 46.9170207 85.368936 48.2040229 88.1834699 49.5356615 85.8921724 49.9497734 86.2195006 51.4338755 84.0596231 51.8479874 81.8997457 52.2633966 78.7355578 50.6912286 76.7938841 47.5716772ZM108.333333 129C112.015232 129 115 131.984768 115 135.666667L115 172.333333C115 176.015232 112.015232 179 108.333333 179L21.6666667 179C17.9847683 179 15 176.015232 15 172.333333L15 135.666667C15 131.984768 17.9847683 129 21.6666667 129L108.333333 129ZM108.333318 130.333341 21.6666512 130.333341C18.7211326 130.333341 16.3333179 132.721156 16.3333179 135.666675L16.3333179 135.666675 16.3333179 172.333341C16.3333179 175.27886 18.7211326 177.666675 21.6666512 177.666675L21.6666512 177.666675 108.333318 177.666675C111.278837 177.666675 113.666651 175.27886 113.666651 172.333341L113.666651 172.333341 113.666651 135.666675C113.666651 132.721156 111.278837 130.333341 108.333318 130.333341L108.333318 130.333341ZM108.333305 133.000042C109.806064 133.000042 110.999972 134.19395 110.999972 135.666709L110.999972 172.333376C110.999972 173.806135 109.806064 175.000042 108.333305 175.000042L21.6666383 175.000042C20.193879 175.000042 18.9999717 173.806135 18.9999717 172.333376L18.9999717 135.666709C18.9999717 134.19395 20.193879 133.000042 21.6666383 133.000042L108.333305 133.000042ZM33.2780124 144.978021 30.0780124 144.978021 30.0780124 155.644688C30.0780124 160.018021 33.0913457 163.164688 37.2780124 163.164688 41.4913457 163.164688 44.5046791 160.018021 44.5046791 155.644688L44.5046791 144.978021 41.304679 144.978021 41.304679 155.644688C41.304679 156.631355 41.1713457 157.271355 40.744679 157.964688 40.0513457 159.138021 38.7180124 159.911355 37.2780124 159.911355 35.8380124 159.911355 34.5313457 159.138021 33.8380124 157.964688 33.4113457 157.271355 33.2780124 156.711355 33.2780124 155.644688L33.2780124 144.978021ZM52.2913457 144.978021 49.1446791 144.978021 49.1446791 162.844688 52.2913457 162.844688 52.2913457 150.551355 60.7980124 162.844688 63.5713458 162.844688 63.5713458 144.978021 60.4780124 144.978021 60.4780124 156.764688 52.2913457 144.978021ZM73.9713458 144.978021 68.2113458 144.978021 68.2113458 162.844688 73.9713458 162.844688C75.4113458 162.844688 76.9313458 162.471355 78.1846791 161.778021 81.0113458 160.204688 82.5046791 157.458021 82.5046791 153.884688 82.5046791 150.364688 81.0113458 147.671355 78.2380124 146.098021 76.9313458 145.351355 75.4913458 144.978021 73.9713458 144.978021ZM94.7980125 144.978021 86.5846791 144.978021 86.5846791 162.844688 89.7846791 162.844688 89.7846791 155.831355 94.5580125 155.831355 97.4380125 162.844688 101.011346 162.844688 97.7313458 155.191355C99.5713458 154.204688 100.638012 152.444688 100.638012 150.444688 100.638012 148.418021 99.5713458 146.658021 97.8646791 145.724688 96.9313458 145.164688 96.1046791 144.978021 94.7980125 144.978021ZM73.9713458 148.178021C74.9313458 148.178021 75.8646791 148.418021 76.6646791 148.871355 78.4246791 149.858021 79.3046791 151.484688 79.3046791 153.884688 79.3046791 156.338021 78.4246791 157.964688 76.5580124 158.951355 75.7846791 159.404688 74.9313458 159.644688 73.9713458 159.644688L71.4646791 159.644688 71.4646791 148.178021 73.9713458 148.178021ZM94.8513458 148.178021C96.4246791 148.178021 97.4380125 149.058021 97.4380125 150.444688 97.4380125 151.751355 96.4246791 152.631355 94.8513458 152.631355L89.7846791 152.631355 89.7846791 148.178021 94.8513458 148.178021Z"/></svg>