<svg xmlns="http://www.w3.org/2000/svg" width="100" height="100" viewBox="0 0 100 100"><path fill="#F100FF" d="M50,10 C60.6086596,10 70.7828161,14.2142736 78.2842713,21.7157288 C85.7857264,29.2171839 90,39.3913404 90,50 C90,72.09139 72.09139,90 50,90 C27.90861,90 10,72.09139 10,50 C10,27.90861 27.90861,10 50,10 Z M50,16.67 C31.5923493,16.67 16.67,31.5923493 16.67,50 C16.67,68.4076507 31.5923493,83.33 50,83.33 C68.3985134,83.3079592 83.3079592,68.3985134 83.33,50 C83.33,31.5923493 68.4076507,16.67 50,16.67 Z M50,46.6699701 C50.8849023,46.6673426 51.7344721,47.0170074 52.3611327,47.6417918 C52.9877934,48.2665762 53.34,49.1150937 53.34,50 L53.34,50 L53.34,63.33 C53.34,65.1718696 51.8468697,66.665 50.005,66.665 C48.1631304,66.665 46.67,65.1718696 46.67,63.33 L46.67,63.33 L46.67,50 C46.67,48.1608918 48.1608918,46.6699701 50,46.6699701 Z M50,33.34 C51.8391082,33.34 53.33,34.8308918 53.33,36.67 C53.33,38.5091082 51.8391082,40 50,40 C48.1608918,40 46.67,38.5091082 46.67,36.67 C46.67,34.8308918 48.1608918,33.34 50,33.34 Z"/></svg>