<svg xmlns="http://www.w3.org/2000/svg" width="130" height="130" viewBox="0 0 130 130"><g fill="none" fill-rule="evenodd"><circle cx="65" cy="65" r="55" fill="#FFF"/><g transform="translate(23 44)"><path class="letters" fill="#252F3E" fill-rule="nonzero" d="M23.6062118,18.2500902 C23.6062118,19.2841688 23.718059,20.1226109 23.9137916,20.7374684 C24.137486,21.352326 24.417104,22.0230797 24.8085692,22.7497295 C24.9483782,22.9733141 25.0043018,23.1968987 25.0043018,23.3925352 C25.0043018,23.6720159 24.836531,23.9514966 24.4730276,24.2309773 L22.7114342,25.4047962 C22.459778,25.5724847 22.2081218,25.6563289 21.9844274,25.6563289 C21.7048094,25.6563289 21.4251914,25.5165885 21.1455734,25.2650559 C20.7541082,24.8458348 20.4185666,24.3986657 20.1389486,23.9514966 C19.8593306,23.4763794 19.5797126,22.945366 19.2721328,22.3025604 C17.0911124,24.8737829 14.3508561,26.1593942 11.0513637,26.1593942 C8.70257249,26.1593942 6.82913189,25.4886405 5.4590037,24.1471331 C4.08887551,22.8056257 3.38983051,21.0169492 3.38983051,18.7811035 C3.38983051,16.4055175 4.2286845,14.4771006 5.9343543,13.0238009 C7.64002409,11.5705013 9.90492988,10.8438514 12.7849953,10.8438514 C13.7356965,10.8438514 14.7143595,10.9276956 15.7489461,11.067436 C16.7835327,11.2071763 17.846081,11.4307609 18.964553,11.6822935 L18.964553,9.64208439 C18.964553,7.51803101 18.5171642,6.03678327 17.6503484,5.17039308 C16.7555709,4.30400288 15.2456337,3.88478182 13.0925751,3.88478182 C12.1139121,3.88478182 11.1072873,3.99657411 10.0727007,4.24810674 C9.03811408,4.49963938 8.03148929,4.80706816 7.05282629,5.19834115 C6.60543749,5.39397764 6.2698959,5.50576992 6.0741633,5.56166607 C5.8784307,5.61756221 5.7386217,5.64551028 5.6267745,5.64551028 C5.2353093,5.64551028 5.0395767,5.36602957 5.0395767,4.77912009 L5.0395767,3.40966462 C5.0395767,2.96249549 5.0955003,2.62711864 5.2353093,2.43148215 C5.3751183,2.23584565 5.6267745,2.04020916 6.0182397,1.84457266 C6.99690269,1.34150739 8.17129829,0.922286332 9.54142648,0.586909484 C10.9115547,0.223584565 12.3655683,0.0558961414 13.9034673,0.0558961414 C17.2309214,0.0558961414 19.663598,0.81049405 21.2294588,2.31968987 C22.7673578,3.82888568 23.5502882,6.12062748 23.5502882,9.19491525 L23.5502882,18.2500902 L23.6062118,18.2500902 Z M12.2537211,22.4981969 C13.1764605,22.4981969 14.1271617,22.3305085 15.1337865,21.9951316 C16.1404113,21.6597548 17.0351888,21.0448972 17.7901574,20.2064551 C18.2375462,19.6754418 18.5730878,19.0885323 18.7408586,18.4177786 C18.9086294,17.7470249 19.0204766,16.9365308 19.0204766,15.9862964 L19.0204766,14.8124775 C18.2095844,14.616841 17.3427686,14.4491525 16.4479911,14.3373603 C15.5532135,14.225568 14.6863977,14.1696718 13.8195819,14.1696718 C11.9461413,14.1696718 10.5760131,14.5329968 9.65327368,15.2875947 C8.73053429,16.0421926 8.28314549,17.1042193 8.28314549,18.5016228 C8.28314549,19.8151821 8.61868709,20.7933646 9.31773208,21.4641183 C9.98881528,22.1628201 10.9674783,22.4981969 12.2537211,22.4981969 Z M34.7070464,25.5165885 C34.203734,25.5165885 33.8681924,25.4327443 33.644498,25.2371078 C33.4208036,25.0694194 33.225071,24.6781464 33.0573002,24.1471331 L26.4862772,2.54327443 C26.3185064,1.98431302 26.234621,1.6209881 26.234621,1.4253516 C26.234621,0.978182474 26.4583154,0.726649838 26.9057042,0.726649838 L29.6459606,0.726649838 C30.1772348,0.726649838 30.5407382,0.81049405 30.7364708,1.00613054 C30.9601652,1.17381897 31.127936,1.56509196 31.2957068,2.0961053 L35.9932892,20.5977281 L40.3553299,2.0961053 C40.4951389,1.53714389 40.6629097,1.17381897 40.8866041,1.00613054 C41.1102985,0.83844212 41.5017637,0.726649838 42.0050761,0.726649838 L44.2420201,0.726649838 C44.7732943,0.726649838 45.1367977,0.81049405 45.3604921,1.00613054 C45.5841865,1.17381897 45.7799191,1.56509196 45.8917663,2.0961053 L50.3097307,20.8213127 L55.1471221,2.0961053 C55.3148929,1.53714389 55.5106255,1.17381897 55.7063581,1.00613054 C55.9300525,0.83844212 56.2935559,0.726649838 56.7968683,0.726649838 L59.3973157,0.726649838 C59.8447045,0.726649838 60.0963607,0.950234403 60.0963607,1.4253516 C60.0963607,1.56509196 60.0683989,1.70483231 60.0404371,1.87252074 C60.0124753,2.04020916 59.9565517,2.26379373 59.8447045,2.5712225 L53.1059107,24.1750811 C52.9381399,24.7340426 52.7424073,25.0973675 52.5187129,25.2650559 C52.2950185,25.4327443 51.9315151,25.5445366 51.4561645,25.5445366 L49.0514497,25.5445366 C48.5201755,25.5445366 48.1566721,25.4606924 47.9329777,25.2650559 C47.7092833,25.0694194 47.5135507,24.7060945 47.4017035,24.1471331 L43.0676245,6.12062748 L38.7615074,24.119185 C38.6216984,24.6781464 38.4539276,25.0414713 38.2302332,25.2371078 C38.0065388,25.4327443 37.6150736,25.5165885 37.1117612,25.5165885 L34.7070464,25.5165885 Z M70.6379592,26.2711864 C69.1839456,26.2711864 67.729932,26.103498 66.331842,25.7681212 C64.933752,25.4327443 63.8432418,25.0694194 63.1162351,24.6501983 C62.6688463,24.3986657 62.3612665,24.119185 62.2494193,23.8676524 C62.1375721,23.6161197 62.0816485,23.336639 62.0816485,23.0851064 L62.0816485,21.6597548 C62.0816485,21.0728453 62.3053429,20.7933646 62.7247699,20.7933646 C62.8925407,20.7933646 63.0603115,20.8213127 63.2280823,20.8772088 C63.395853,20.9331049 63.6475092,21.0448972 63.9271272,21.1566895 C64.8778284,21.5759106 65.912415,21.9112874 67.0029252,22.134872 C68.1213972,22.3584565 69.2119074,22.4702488 70.3303794,22.4702488 C72.0919728,22.4702488 73.462101,22.1628201 74.4128022,21.5479625 C75.3635034,20.9331049 75.8668158,20.0387667 75.8668158,18.8928958 C75.8668158,18.1103498 75.6151596,17.4675442 75.1118472,16.9365308 C74.6085348,16.4055175 73.6578336,15.9304003 72.2877054,15.4832312 L68.2332444,14.225568 C66.192033,13.5827624 64.6820958,12.6325279 63.7593564,11.3748648 C62.8366171,10.1451497 62.3612665,8.77569419 62.3612665,7.32239452 C62.3612665,6.14857555 62.6129227,5.11449693 63.1162351,4.22015867 C63.6195474,3.32582041 64.2906306,2.54327443 65.1294846,1.92841688 C65.9683386,1.28561125 66.9190398,0.81049405 68.0375118,0.475117202 C69.1559838,0.139740353 70.3303794,0 71.5606986,0 C72.1758582,0 72.8189796,0.0279480707 73.4341392,0.111792283 C74.0772606,0.195636495 74.6644584,0.307428777 75.2516562,0.41922106 C75.8108922,0.558961414 76.3421664,0.698701767 76.8454788,0.866390191 C77.3487912,1.03407862 77.7402564,1.20176704 78.0198744,1.36945546 C78.4113396,1.59304003 78.6909576,1.81662459 78.8587284,2.06815723 C79.0264992,2.2917418 79.1103846,2.59917057 79.1103846,2.99044356 L79.1103846,4.30400288 C79.1103846,4.89091237 78.8866902,5.19834115 78.4672632,5.19834115 C78.2435688,5.19834115 77.8800654,5.08654886 77.4047148,4.8629643 C75.8108922,4.13631446 74.021337,3.77298954 72.0360492,3.77298954 C70.4422266,3.77298954 69.1839456,4.02452218 68.3171298,4.55553552 C67.450314,5.08654886 67.0029252,5.89704291 67.0029252,7.04291381 C67.0029252,7.82545979 67.2825432,8.49621349 67.8417792,9.02722683 C68.4010152,9.55824017 69.4356018,10.0892535 70.9175772,10.5643707 L74.8881528,11.8220339 C76.9014024,12.4648395 78.355416,13.3591778 79.2222318,14.5050487 C80.0890476,15.6509196 80.5084746,16.9644789 80.5084746,18.4177786 C80.5084746,19.6195456 80.2568184,20.7095204 79.7814678,21.6597548 C79.2781554,22.6099892 78.6070722,23.4484313 77.7402564,24.119185 C76.8734406,24.8178868 75.838854,25.320952 74.6364966,25.684277 C73.3782156,26.0755499 72.064011,26.2711864 70.6379592,26.2711864 Z"/><g fill="#F90" transform="translate(0 31.356)"><path d="M75.8511754,8.40064242 C66.67086,15.0919122 53.332894,18.6440678 41.8644756,18.6440678 C25.7919476,18.6440678 11.3099302,12.7788807 0.371681968,3.03110493 C-0.493332559,2.26009442 0.287970885,1.21372301 1.32040758,1.81951698 C13.151574,8.59339505 27.7452062,12.6962724 42.8411049,12.6962724 C53.0259534,12.6962724 64.2153348,10.6035296 74.5117981,6.3078996 C76.0465013,5.61949736 77.3579749,7.29919883 75.8511754,8.40064242 Z"/><path d="M79.6739816,4.10501243 C78.5020264,2.61806358 71.9167545,3.38907409 68.9310592,3.74704326 C68.038141,3.85718762 67.8986225,3.08617711 68.7078297,2.50791922 C73.9537242,-1.12684462 82.5759658,-0.0804732103 83.5804988,1.13111474 C84.5850318,2.37023877 83.3014618,10.8788905 78.3904116,14.9542318 C77.6370119,15.5875618 76.9115158,15.2571288 77.2463602,14.4310461 C78.3625079,11.7049732 80.8459367,5.56442518 79.6739816,4.10501243 Z"/></g></g></g></svg>