<svg xmlns="http://www.w3.org/2000/svg" width="100" height="100" viewBox="0 0 100 100"><path fill="#F100FF" d="M29.9,7 C25.35,8.8 22.5,12.55 22.5,16.8 C22.5,19.85 24.3,21.95 27,21.95 C29.4,21.95 31.2,20.25 31.2,18 C31.2,16.25 30.2,14.9 28.5,14.45 L27.7464281,14.2363756 C27.2361496,14.0861496 27.1973684,14.0473684 27.05,13.9 C26.85,13.7 26.7,13.3 26.7,12.95 C26.7,11.3 28.2,9.65 31,8.3 L29.9,7 Z M41.1,7 C36.55,8.8 33.7,12.55 33.7,16.8 C33.7,19.85 35.55,21.95 38.2,21.95 C40.6,21.95 42.4,20.25 42.4,18 C42.4,16.25 41.4,14.9 39.7,14.45 L38.9464281,14.2363756 C38.4361496,14.0861496 38.3973684,14.0473684 38.25,13.9 C38.05,13.7 37.9,13.3 37.9,12.95 C37.9,11.25 39.45,9.6 42.2,8.3 L41.1,7 Z M59.5,92.8 C64.15,91.05 67.05,87.25 67.05,82.95 C67.05,79.9 65.25,77.8 62.55,77.8 C60.15,77.8 58.35,79.5 58.35,81.75 C58.35,83.5 59.4,84.85 61.05,85.3 L61.8035719,85.5136244 C62.3138504,85.6638504 62.3526316,85.7026316 62.5,85.85 C62.7,86.05 62.85,86.45 62.85,86.8 C62.85,88.5 61.3,90.2 58.6,91.45 L59.5,92.8 Z M70.7,92.8 C75.35,91.05 78.25,87.25 78.25,82.95 C78.25,79.85 76.45,77.8 73.75,77.8 C71.35,77.8 69.55,79.5 69.55,81.75 C69.55,83.5 70.6,84.85 72.25,85.3 L73.0035719,85.5136244 C73.5138504,85.6638504 73.5526316,85.7026316 73.7,85.85 C73.9,86.05 74.05,86.45 74.05,86.8 C74.05,88.5 72.5,90.2 69.8,91.45 L70.7,92.8 Z M75,32 C76.6568542,32 78,33.3431458 78,35 C78,36.6568542 76.6568542,38 75,38 L25,38 C23.3431458,38 22,36.6568542 22,35 C22,33.3431458 23.3431458,32 25,32 L75,32 Z M75,7 C76.6568542,7 78,8.34314575 78,10 L78,20 C78,21.6568542 76.6568542,23 75,23 C73.3431458,23 72,21.6568542 72,20 L72,13 L55,13 C53.4023191,13 52.0963391,11.75108 52.0050927,10.1762728 L52,10 C52,8.34314575 53.3431458,7 55,7 L75,7 Z M25,77 C26.6568542,77 28,78.3431458 28,80 L27.999,87 L45,87 C46.5976809,87 47.9036609,88.24892 47.9949073,89.8237272 L48,90 C48,91.6568542 46.6568542,93 45,93 L25,93 C23.3431458,93 22,91.6568542 22,90 L22,80 C22,78.3431458 23.3431458,77 25,77 Z M75,47 C76.6568542,47 78,48.3431458 78,50 C78,51.6568542 76.6568542,53 75,53 L25,53 C23.3431458,53 22,51.6568542 22,50 C22,48.3431458 23.3431458,47 25,47 L75,47 Z M60,62 C61.6568542,62 63,63.3431458 63,65 C63,66.6568542 61.6568542,68 60,68 L25,68 C23.3431458,68 22,66.6568542 22,65 C22,63.3431458 23.3431458,62 25,62 L60,62 Z"/></svg>