<svg xmlns="http://www.w3.org/2000/svg" width="100" height="100" viewBox="0 0 100 100"><path fill="#F100FF" d="M50,17.3309524 C51.6568542,17.3309524 53,18.6740982 53,20.3309524 L52.999,47.3309524 L80,47.3309524 C81.6568542,47.3309524 83,48.6740982 83,50.3309524 C83,51.9878067 81.6568542,53.3309524 80,53.3309524 L52.999,53.3309524 L53,80.3309524 C53,81.9878067 51.6568542,83.3309524 50,83.3309524 C48.3431458,83.3309524 47,81.9878067 47,80.3309524 L46.999,53.3309524 L20,53.3309524 C18.3431458,53.3309524 17,51.9878067 17,50.3309524 C17,48.6740982 18.3431458,47.3309524 20,47.3309524 L46.999,47.3309524 L47,20.3309524 C47,18.6740982 48.3431458,17.3309524 50,17.3309524 Z" transform="rotate(45 50 50.331)"/></svg>