<svg xmlns="http://www.w3.org/2000/svg" width="100" height="100" viewBox="0 0 100 100"><path fill="#F100FF" d="M84,50 L83.9951047,50.1996403 L83.979172,50.4089006 C83.9701672,50.4970446 83.9582425,50.5849467 83.9433979,50.6724501 C83.9233499,50.7921168 83.897867,50.9099045 83.8672867,51.0256123 L83.8035158,51.2410106 L83.7322408,51.441661 L83.6506948,51.6373987 L83.6061643,51.7329036 L83.4927816,51.9515462 L83.3555753,52.1780419 L83.2501934,52.3326222 L83.1519381,52.4634398 L83.008137,52.6365767 L82.8670454,52.7892776 L68.8284271,66.8284271 C67.26633,68.3905243 64.73367,68.3905243 63.1715729,66.8284271 L63.0205701,66.6690541 C61.6112114,65.0985644 61.6615456,62.6816001 63.1715729,61.1715729 L70.343,54 L29.657,54 L36.8284271,61.1715729 C38.3384544,62.6816001 38.3887886,65.0985644 36.9794299,66.6690541 L36.8284271,66.8284271 C35.26633,68.3905243 32.73367,68.3905243 31.1715729,66.8284271 L17.0798119,52.7336485 L16.9524538,52.5909651 C16.8808136,52.5070881 16.8132943,52.4208572 16.7498066,52.3326222 L16.6355354,52.1643134 C16.5450696,52.0246367 16.4644797,51.8803381 16.3934942,51.7325812 L16.316625,51.5624409 L16.2484918,51.3906609 L16.1827479,51.1979685 C16.1289746,51.0272223 16.0866741,50.8519502 16.0563088,50.6726185 L16.0364885,50.5409366 L16.0194285,50.396747 C16.006578,50.266238 16,50.1338872 16,50 C16,49.8661128 16.006578,49.733762 16.0194285,49.603253 L16.0566021,49.3275499 C16.0766501,49.2078832 16.102133,49.0900955 16.1327133,48.9743877 L16.1964842,48.7589894 L16.2677592,48.558339 L16.3493052,48.3626013 L16.3938357,48.2670964 C16.4644797,48.1196619 16.5450696,47.9753633 16.6352636,47.8354588 L16.7450572,47.6744524 L16.8799814,47.496358 L16.991863,47.3634233 L17.1329546,47.2107224 L31.1715729,33.1715729 C32.73367,31.6094757 35.26633,31.6094757 36.8284271,33.1715729 C38.3905243,34.73367 38.3905243,37.26633 36.8284271,38.8284271 L29.657,46 L70.343,46 L63.1715729,38.8284271 C61.6615456,37.3183999 61.6112114,34.9014356 63.0205701,33.3309459 L63.1715729,33.1715729 C64.73367,31.6094757 67.26633,31.6094757 68.8284271,33.1715729 L82.9279549,47.2747096 L83.0841734,47.4524642 L83.1378385,47.5190204 C83.2183324,47.6206877 83.2939902,47.726359 83.3644646,47.8356866 C83.4549304,47.9753633 83.5355203,48.1196619 83.6065058,48.2674188 L83.683375,48.4375591 L83.7515082,48.6093391 L83.8172521,48.8020315 C83.853101,48.9158623 83.8838508,49.0317046 83.9093646,49.1494203 L83.9566297,49.4089093 C83.9851995,49.6017952 84,49.7991692 84,50 Z"/></svg>