<svg xmlns="http://www.w3.org/2000/svg" width="100" height="100" viewBox="0 0 100 100"><path fill="#F100FF" d="M50.6726185,80.9436912 L50.3989057,80.9801805 C50.2675955,80.9933544 50.1345738,81 50,81 C49.8654262,81 49.7324045,80.9933544 49.6012454,80.9803734 L49.3275499,80.9433979 L49.1725698,80.9139585 L48.9856214,80.870206 L48.7589894,80.8035158 L48.558339,80.7322408 L48.3626013,80.6506948 L48.2670964,80.6061643 C48.1196619,80.5355203 47.9753633,80.4549304 47.8354588,80.3647364 L47.6678474,80.2501508 L47.496358,80.1200186 L47.3634233,80.008137 L47.2107224,79.8670454 L33.1715729,65.8284271 C31.6094757,64.26633 31.6094757,61.73367 33.1715729,60.1715729 L33.3309459,60.0205701 C34.9014356,58.6112114 37.3183999,58.6615456 38.8284271,60.1715729 L46,67.343 L46,17 C46,14.790861 47.790861,13 50,13 C52.209139,13 54,14.790861 54,17 L54,67.343 L61.1715729,60.1715729 C62.6816001,58.6615456 65.0985644,58.6112114 66.6690541,60.0205701 L66.8284271,60.1715729 C68.3905243,61.73367 68.3905243,64.26633 66.8284271,65.8284271 L52.7252904,79.9279549 L52.5909651,80.0475462 C52.5621846,80.0722398 52.5330417,80.0963676 52.503642,80.1200186 L52.3321526,80.2501508 L52.1643134,80.3644646 C52.0246367,80.4549304 51.8803381,80.5355203 51.7325812,80.6065058 L51.5624409,80.683375 L51.3906609,80.7515082 L51.1979685,80.8172521 L51.0144691,80.8701938 L50.810364,80.917511 C50.764934,80.9272188 50.7189115,80.9358527 50.6726185,80.9436912 Z"/></svg>