<svg xmlns="http://www.w3.org/2000/svg" width="100" height="100" viewBox="0 0 100 100"><path fill="#F100FF" d="M50,14 C51.6568542,14 53,15.3431458 53,17 L53,69.757 L61.8786797,60.8786797 C63.0033896,59.7539697 64.7989525,59.7089813 65.9773307,60.7437145 L66.1213203,60.8786797 C67.2928932,62.0502525 67.2928932,63.9497475 66.1213203,65.1213203 L52.0594975,79.1814023 L51.8880694,79.3314962 L51.7056708,79.4682628 L51.5707629,79.5564107 L51.480462,79.6101302 L51.3413649,79.684188 L51.1681858,79.7640731 C51.0608807,79.8094875 50.9497877,79.8490278 50.8359054,79.882001 L50.6690015,79.9251304 L50.4292651,79.9693112 L50.2668115,79.9882008 L50,80 L49.8922006,79.9980993 L49.6807935,79.9830724 L49.530714,79.9632822 L49.290767,79.9156397 L49.1641754,79.8817936 L48.9954279,79.8276446 L48.8025501,79.7515325 L48.6587022,79.6841885 L48.4741623,79.5837936 L48.2938297,79.4682194 L48.1118679,79.3314543 L47.9405025,79.1814023 L33.8786797,65.1213203 C32.7071068,63.9497475 32.7071068,62.0502525 33.8786797,60.8786797 L34.0226693,60.7437145 C35.2010475,59.7089813 36.9966104,59.7539697 38.1213203,60.8786797 L47,69.757 L47,17 C47,15.3431458 48.3431458,14 50,14 Z"/></svg>