<svg xmlns="http://www.w3.org/2000/svg" width="100" height="100" viewBox="0 0 100 100"><path fill="#F100FF" d="M50.005823,20.8333521 C51.6166531,20.8333521 52.9224888,22.1391879 52.9224888,23.7500179 C52.9224888,25.2457887 51.7965386,26.4785797 50.3459679,26.6470612 L50.005823,26.6666838 L23.7499974,26.6666838 C22.2693107,26.6666838 21.0286203,27.8016108 20.8589333,29.2407498 L20.8391649,29.5778808 L20.8333316,76.255836 C20.8333316,77.7365227 21.9682587,78.9772131 23.4068139,79.1469001 L23.7437996,79.1666685 L70.4224837,79.1608351 C71.9031705,79.1608351 73.1438609,78.025908 73.3135479,76.587061 L73.3333163,76.2500026 L73.3333163,49.994177 C73.3333163,48.383347 74.639152,47.0775112 76.2499821,47.0775112 C77.7457528,47.0775112 78.9785438,48.2034614 79.1470254,49.6540322 L79.1666479,49.994177 L79.1666479,76.2500026 C79.1666479,80.8942396 75.5142851,84.7124681 70.9352992,84.9792749 L70.4228482,84.9941667 L23.7441641,85 C19.0999271,85 15.2816987,81.3476372 15.0148918,76.7679978 L15,76.2554715 L15.0058333,29.5775163 C15.0058333,24.9332792 18.6581961,21.1150508 23.2375088,20.848244 L23.7499974,20.8333521 L50.005823,20.8333521 Z M68.3542562,15.8542922 C68.9836862,15.2248622 69.8660931,14.9173213 70.7503948,15.0191781 C78.2247816,15.8801022 84.1198978,21.7752184 84.980822,29.2496053 C85.0826787,30.1339069 84.7751379,31.0163139 84.1457079,31.6457438 L84.1457079,31.6457438 L49.7728012,66.0186504 C48.9580149,66.8334367 47.9213447,67.3878299 46.7893133,67.615402 L46.7893133,67.615402 L33.072234,70.3599845 C31.031214,70.7683621 29.2316379,68.968786 29.6400155,66.9277661 L29.6400155,66.9277661 L32.3851195,53.2080864 C32.6121701,52.0786553 33.1665633,51.0419851 33.9813496,50.2271988 L33.9813496,50.2271988 L68.3542562,15.8542922 Z M71.4024834,21.0550187 L38.106138,54.3519872 L36.2158271,63.7812563 L45.6422347,61.8959648 L78.9420646,28.5946 L78.8522531,28.2432556 C77.8705441,24.8178938 75.1821063,22.129456 71.7567445,21.147747 L71.7567445,21.147747 L71.4024834,21.0550187 Z"/></svg>