<svg xmlns="http://www.w3.org/2000/svg" width="100" height="100" viewBox="0 0 100 100"><path fill="#F100FF" fill-rule="evenodd" d="M50,26 C54.418278,26 58,22.418278 58,18 C58,13.581722 54.418278,10 50,10 C45.581722,10 42,13.581722 42,18 C42,22.418278 45.581722,26 50,26 Z M50,58 C54.418278,58 58,54.418278 58,50 C58,45.581722 54.418278,42 50,42 C45.581722,42 42,45.581722 42,50 C42,54.418278 45.581722,58 50,58 Z M50,90 C54.418278,90 58,86.418278 58,82 C58,77.581722 54.418278,74 50,74 C45.581722,74 42,77.581722 42,82 C42,86.418278 45.581722,90 50,90 Z"/></svg>