<svg xmlns="http://www.w3.org/2000/svg" width="100" height="100" viewBox="0 0 100 100"><path fill="#F100FF" d="M88.3247209,44.0618126 L82.0865755,43.3874185 C79.7261962,43.1345207 77.7873131,41.5328347 76.8600212,39.3410539 C76.8600212,39.3410539 76.8600212,39.2567546 76.8600212,39.2567546 C75.9327293,37.0649738 76.1856271,34.5359959 77.7030139,32.7657114 L81.6650792,27.9606535 C82.255174,27.2019601 82.255174,26.1060697 81.4964807,25.4316756 L75.0897367,19.0249317 C74.4153426,18.3505376 73.3194522,18.2662383 72.5607588,18.8563331 L67.7557009,22.7340992 C65.9011171,24.2514859 63.3721392,24.5043837 61.1803584,23.5770918 C61.1803584,23.5770918 61.0960592,23.5770918 61.0960592,23.5770918 C58.9042783,22.6497999 57.3025924,20.7109169 57.0496946,18.3505376 L56.3753005,12.1123921 C56.2910012,11.1851003 55.4480086,10.4264069 54.5207167,10.4264069 L45.4163964,10.4264069 C44.4891045,10.4264069 43.6461119,11.1851003 43.5618126,12.1123921 L42.8874185,18.3505376 C42.6345207,20.7109169 41.0328347,22.6497999 38.8410539,23.5770918 C38.8410539,23.5770918 38.7567546,23.5770918 38.7567546,23.5770918 C36.5649738,24.5043837 34.0359959,24.2514859 32.1814122,22.7340992 L27.3763542,18.8563331 C26.6176609,18.2662383 25.5217704,18.2662383 24.8473763,19.0249317 L18.4406324,25.4316756 C17.7662383,26.1060697 17.681939,27.2019601 18.2720339,27.9606535 L22.2340992,32.7657114 C23.7514859,34.6202952 24.0043837,37.0649738 23.0770918,39.2567546 C23.0770918,39.2567546 23.0770918,39.3410539 23.0770918,39.3410539 C22.1497999,41.5328347 20.2109169,43.1345207 17.8505376,43.3874185 L11.6123921,44.0618126 C10.6851003,44.1461119 9.92640687,44.9891045 9.92640687,45.9163964 L9.92640687,55.0207167 C9.92640687,55.9480086 10.6851003,56.7910012 11.6123921,56.8753005 L17.8505376,57.5496946 C20.2109169,57.8025924 22.1497999,59.4042783 23.0770918,61.5960592 C23.0770918,61.5960592 23.0770918,61.6803584 23.0770918,61.6803584 C24.0043837,63.8721392 23.7514859,66.4011171 22.2340992,68.1714016 L18.2720339,72.9764596 C17.681939,73.7351529 17.681939,74.8310434 18.4406324,75.5054375 L24.8473763,81.9121814 C25.5217704,82.5865755 26.6176609,82.6708748 27.3763542,82.0807799 L32.1814122,78.1187146 C34.0359959,76.6013279 36.4806746,76.3484301 38.6724554,77.275722 C38.6724554,77.275722 38.7567546,77.275722 38.7567546,77.275722 C40.9485355,78.2030139 42.5502214,80.1418969 42.8031192,82.5022762 L43.4775133,88.7404217 C43.5618126,89.6677135 44.4048052,90.4264069 45.3320971,90.4264069 L54.4364174,90.4264069 C55.3637093,90.4264069 56.2067019,89.6677135 56.2910012,88.7404217 L56.9653953,82.5022762 C57.2182931,80.1418969 58.8199791,78.2030139 61.0117599,77.275722 C61.0117599,77.275722 61.0960592,77.275722 61.0960592,77.275722 C63.28784,76.3484301 65.8168179,76.6013279 67.5871024,78.1187146 L72.3921603,82.0807799 C73.1508537,82.6708748 74.2467441,82.6708748 74.9211382,81.9121814 L81.3278821,75.5054375 C82.0022762,74.8310434 82.0865755,73.7351529 81.4964807,72.9764596 L77.7030139,68.1714016 C76.1856271,66.3168179 75.9327293,63.8721392 76.8600212,61.6803584 C76.8600212,61.6803584 76.8600212,61.5960592 76.8600212,61.5960592 C77.7873131,59.4042783 79.7261962,57.8025924 82.0865755,57.5496946 L88.3247209,56.8753005 C89.2520128,56.7910012 90.0107062,55.9480086 90.0107062,55.0207167 L90.0107062,45.9163964 C90.0107062,44.9891045 89.2520128,44.1461119 88.3247209,44.0618126 Z M49.9685565,64.3779348 C42.2973237,64.3779348 36.0591782,58.1397894 36.0591782,50.4685565 C36.0591782,42.7973237 42.2973237,36.5591782 49.9685565,36.5591782 C57.6397894,36.5591782 63.8779348,42.7973237 63.8779348,50.4685565 C63.8779348,58.1397894 57.6397894,64.3779348 49.9685565,64.3779348 Z"/></svg>