<svg xmlns="http://www.w3.org/2000/svg" width="100" height="100" viewBox="0 0 100 100"><path fill="#F100FF" d="M23,90 C21.3431458,90 20,88.6568542 20,87 C20,85.3431458 21.3431458,84 23,84 L26.739553,84.0003107 C25.8894077,68.6329687 31.5047429,57.1632653 43.4319921,49.9995939 C31.5050114,42.8368959 25.8896605,31.3675477 26.7394956,16.0007271 L23,16 C21.3431458,16 20,14.6568542 20,13 C20,11.3431458 21.3431458,10 23,10 L77,10 C78.6568542,10 80,11.3431458 80,13 C80,14.6568542 78.6568542,16 77,16 L73.2605044,16.0007271 C74.1103395,31.3675477 68.4949886,42.8368959 56.5680079,50.0004061 C68.4952571,57.1633192 74.1105923,68.6329723 73.260447,84.000311 L77,84 C78.6568542,84 80,85.3431458 80,87 C80,88.6568542 78.6568542,90 77,90 L23,90 Z M50.0012937,53.2929282 C37.5043229,59.1724898 31.8239708,69.2220299 32.748681,84.000203 L67.2513625,83.9995109 C68.1758322,69.2221075 62.4958728,59.1729061 50.0012937,53.2929282 Z M67.2513656,16.0005373 L32.7486344,16.0005373 C31.8241555,30.7783071 37.5044428,40.8276345 49.9997026,46.7075407 C62.4958592,40.8271003 68.1758199,30.7779143 67.2513656,16.0005373 Z"/></svg>