<svg xmlns="http://www.w3.org/2000/svg" width="100" height="100" viewBox="0 0 100 100"><path fill="#F100FF" d="M80,72 C81.6568542,72 83,73.3431458 83,75 L83,82 C83,85.3137085 80.3137085,88 77,88 L23,88 C19.6862915,88 17,85.3137085 17,82 L17,75 C17,73.3431458 18.3431458,72 20,72 C21.6568542,72 23,73.3431458 23,75 L23,82 L77,82 L77,75 C77,73.3431458 78.3431458,72 80,72 Z M50.1471635,72.9964107 L50.0921204,72.9985941 L49.8922006,72.9985941 L49.6807935,72.9830724 L49.4632778,72.9521243 L49.2497523,72.9054231 L49.1621148,72.881427 L48.9949734,72.8275126 L48.7742857,72.7390665 L48.645013,72.6772957 L48.4741623,72.5837936 L48.2938297,72.4682194 L48.1118679,72.3314543 L48.0032904,72.2391217 L47.8786797,72.1213203 L33.8786797,58.1213203 C32.7071068,56.9497475 32.7071068,55.0502525 33.8786797,53.8786797 C35.0502525,52.7071068 36.9497475,52.7071068 38.1213203,53.8786797 L47,62.757 L47,20 C47,18.3431458 48.3431458,17 50,17 C51.6568542,17 53,18.3431458 53,20 L53,62.756 L61.8786797,53.8786797 C63.0502525,52.7071068 64.9497475,52.7071068 66.1213203,53.8786797 C67.2928932,55.0502525 67.2928932,56.9497475 66.1213203,58.1213203 L52.1213203,72.1213203 L52.0223829,72.2159219 L51.8586427,72.3550337 L51.6701274,72.4927714 L51.480462,72.6101302 L51.319324,72.6950765 L51.1721285,72.762405 L51.0123255,72.8248741 L50.8206978,72.8861231 L50.6690015,72.9251304 L50.5204904,72.9550099 L50.3199655,72.9831379 L50.1471635,72.9964107 Z"/></svg>