<svg xmlns="http://www.w3.org/2000/svg" width="100" height="100" viewBox="0 0 100 100"><path fill="#F100FF" d="M45,7 C46.6568542,7 48,8.34314575 48,10 L47.9996722,16.322108 C54.2902004,17.6953253 59,23.2976463 59,30 C59,34.2226715 57.1305135,38.008701 54.1740601,40.5755688 L57.3050769,56.2279794 C59.4328761,54.8684518 61.4515929,53.1928091 63.3264504,51.2253335 C70.3272188,43.8787265 74.0961588,33.5752555 72.9208998,24.9105275 C72.6982079,23.268707 73.848639,21.7572212 75.4904594,21.5345293 C77.1322798,21.3118375 78.6437657,22.4622685 78.8664575,24.104089 C80.298639,34.6630062 75.8761904,46.7530291 67.6700968,55.3645044 C64.8985055,58.2730125 61.8295951,60.6604395 58.5523607,62.4616832 L63.9417409,89.4116459 C64.2666799,91.0363245 63.2130327,92.6168019 61.5883541,92.9417409 C59.9636755,93.2666799 58.3831981,92.2130327 58.0582591,90.5883541 L52.9222533,64.9067192 C47.8365584,66.5590885 42.411547,66.8831472 36.9247586,65.6758684 L31.9417409,90.5883541 C31.6168019,92.2130327 30.0363245,93.2666799 28.4116459,92.9417409 C26.7869673,92.6168019 25.7333201,91.0363245 26.0582591,89.4116459 L35.8253523,40.5750586 C32.8692388,38.0081994 31,34.2223917 31,30 C31,23.2980005 35.7093019,17.6959174 41.9993306,16.3223257 L42,10 C42,8.34314575 43.3431458,7 45,7 Z M41.3554049,43.5208741 L38.1018891,59.7904578 C42.7752236,60.8374505 47.3984684,60.5087099 51.734456,58.9698321 L48.6446615,43.5208741 C47.4825823,43.8333491 46.2607529,44 45,44 C43.7392712,44 42.5174642,43.8333554 41.3554049,43.5208741 Z M45,22 C40.581722,22 37,25.581722 37,30 C37,34.418278 40.581722,38 45,38 C49.418278,38 53,34.418278 53,30 C53,25.581722 49.418278,22 45,22 Z"/></svg>