<svg xmlns="http://www.w3.org/2000/svg" width="250" height="100" viewBox="0 0 250 100"><path fill="#F100FF" d="M130.738813,35.9264069 L130.738813,52.4677603 C130.738813,54.1218956 130.94558,54.9903167 131.607234,56.0655046 C132.682422,57.8850535 134.708738,59.0843016 136.941821,59.0843016 C139.174903,59.0843016 141.242572,57.8850535 142.31776,56.0655046 C142.979415,54.9903167 143.186181,53.9978355 143.186181,52.4677603 L143.186181,52.4677603 L143.186181,35.9264069 L148.148587,35.9264069 L148.148587,52.4677603 C148.148587,59.2497152 143.475655,64.1294144 136.941821,64.1294144 C130.449339,64.1294144 125.776407,59.2497152 125.776407,52.4677603 L125.776407,52.4677603 L125.776407,35.9264069 L130.738813,35.9264069 Z M160.223775,35.9264069 L172.919264,54.2046024 L172.919264,35.9264069 L177.716257,35.9264069 L177.716257,63.6331738 L173.415505,63.6331738 L160.223775,44.569264 L160.223775,63.6331738 L155.344076,63.6331738 L155.344076,35.9264069 L160.223775,35.9264069 Z M193.844076,35.9264069 C196.201219,35.9264069 198.434302,36.5053543 200.460618,37.663249 C204.761369,40.1030986 207.077159,44.2797904 207.077159,49.738437 C207.077159,55.2797904 204.761369,59.5391889 200.377911,61.9790385 C198.434302,63.0542264 196.077159,63.6331738 193.844076,63.6331738 L193.844076,63.6331738 L184.911745,63.6331738 L184.911745,35.9264069 L193.844076,35.9264069 Z M193.844076,40.8888129 L189.956858,40.8888129 L189.956858,58.6707678 L193.844076,58.6707678 C195.332798,58.6707678 196.656106,58.2985874 197.855354,57.5955798 C200.750091,56.0655046 202.114753,53.5429483 202.114753,49.738437 C202.114753,46.0166325 200.750091,43.4940761 198.020768,41.9640009 C196.780166,41.2609934 195.332798,40.8888129 193.844076,40.8888129 L193.844076,40.8888129 Z M226.141069,35.9264069 C228.167384,35.9264069 229.449339,36.2158806 230.896708,37.0843016 C233.543324,38.5316701 235.19746,41.2609934 235.19746,44.4038505 C235.19746,47.5053543 233.543324,50.2346776 230.689941,51.7647528 L230.689941,51.7647528 L235.776407,63.6331738 L230.235054,63.6331738 L225.768888,52.757234 L218.366633,52.757234 L218.366633,63.6331738 L213.404227,63.6331738 L213.404227,35.9264069 L226.141069,35.9264069 Z M226.223775,40.8888129 L218.366633,40.8888129 L218.366633,47.794828 L226.223775,47.794828 C228.663625,47.794828 230.235054,46.4301663 230.235054,44.4038505 C230.235054,42.2534746 228.663625,40.8888129 226.223775,40.8888129 L226.223775,40.8888129 Z M48.5498663,30.6831542 C58.6035846,19.1015637 71.3305097,19.6510767 79.4261226,32.6657264 C81.5511373,36.0798388 85.0141008,37.8004574 87.3779228,37.3458236 C89.7417449,36.8926095 89.383509,35.2683723 91.8911603,34.8151583 C88.8108664,33.3577809 86.2800856,31.9492546 85.5636138,29.5854325 C87.8324411,29.3466086 91.1271416,30.6112891 94.0161584,33.5734752 C94.4218421,33.4052122 94.637652,32.9764154 94.9483411,33.2858002 C96.1180434,34.4569224 102.064241,37.1545465 104.333068,40.0678815 C104.595022,40.3786861 104.261418,41.4764111 103.87855,41.5252622 C101.84853,41.7396689 99.6515678,41.5252622 97.6229677,41.954059 C96.4762793,42.0257095 95.5209836,42.1943027 94.3743943,42.241734 C93.1571616,43.5539779 92.27383,45.2026324 90.6250599,45.8228053 C89.0971382,46.8743999 88.5950565,48.2829262 87.5447661,49.8108645 C86.4226271,51.4352007 84.4644723,52.4135105 82.3150569,52.5099084 C80.572712,55.1599857 78.8534966,58.2878429 77.1097484,60.93934 C76.5602354,61.8702019 75.509945,62.3478663 74.7934567,62.1320564 C74.4108035,62.0365169 73.957573,61.6788258 73.6712682,61.1537301 C73.3849469,60.6285354 73.265535,59.8401985 73.5518397,58.8617732 C74.3402427,59.458833 74.1488996,60.7479474 75.5343788,60.4616921 C76.0120267,57.5713711 76.5126886,53.9184347 77.0147537,51.0294015 C75.7962168,50.8381244 74.6496275,50.1460864 73.4568616,49.9778233 C72.3102392,51.482632 71.3793443,52.8911583 70.2557855,54.3960826 C70.6859525,59.171158 70.5665241,68.1026712 72.2627254,68.7947257 C77.8018029,71.0635531 83.9638104,72.7584502 90.4350871,74.3596568 C91.0321635,74.2880229 91.6292233,74.2158276 92.2493962,74.1682807 C92.8939038,74.8128874 93.7773345,75.2429884 94.2318693,76.1494331 C93.8736334,76.1494331 93.5153975,76.1494331 93.1571616,76.1494331 C93.0133158,76.4371081 92.8939038,76.7464929 92.7744919,77.0572975 C90.9127515,77.3205552 89.0252731,76.9378855 87.1865302,75.9825898 C81.6474197,75.0041645 76.2264168,74.0014209 70.6628725,73.2605319 C68.991105,73.0461252 68.3696113,71.3743577 67.7969853,69.2967909 C66.100784,63.2067641 63.7138819,57.929607 61.1818133,53.2263802 C55.9534413,51.602044 51.6070967,46.5637109 48.1916304,43.4834171 C36.801317,50.1691004 19.8474592,60.9867713 14.4264069,42.5755526 C24.7189656,60.0790224 38.4961646,42.2648636 48.5498663,30.6831542 Z"/></svg>