<svg xmlns="http://www.w3.org/2000/svg" width="100" height="100" viewBox="0 0 100 100"><path fill="#F100FF" fill-rule="evenodd" d="M78,57 C81.8659932,57 85,53.8659932 85,50 C85,46.1340068 81.8659932,43 78,43 C74.1340068,43 71,46.1340068 71,50 C71,53.8659932 74.1340068,57 78,57 Z M50,57 C53.8659932,57 57,53.8659932 57,50 C57,46.1340068 53.8659932,43 50,43 C46.1340068,43 43,46.1340068 43,50 C43,53.8659932 46.1340068,57 50,57 Z M22,57 C25.8659932,57 29,53.8659932 29,50 C29,46.1340068 25.8659932,43 22,43 C18.1340068,43 15,46.1340068 15,50 C15,53.8659932 18.1340068,57 22,57 Z"/></svg>