<svg xmlns="http://www.w3.org/2000/svg" width="100" height="100" viewBox="0 0 100 100"><g fill="none" fill-rule="evenodd" transform="translate(17 10)"><path fill="#9D2235" d="M0,0 L0,50.5346573 C0,69.0924528 32.9733796,84.0145714 33,83.9999893 C33.0286594,84.0145714 66,69.0924528 66,50.5346573 L66,0 L0,0 Z"/><path fill="#FFF" d="M48.839868,59.9999982 C46.2720332,58.5979015 43.272383,57.527992 39.9855545,56.8982738 L33.0010439,28.5120467 L26.0374952,56.8982738 C22.7527629,57.527992 19.7510165,58.5979015 17.1852779,59.9999982 L5.99999924,13.9999982 L13.0159527,13.9999982 L21.5474527,48.4531216 L30.0181632,13.9999982 L35.9818284,13.9999982 L44.6307152,48.4531216 L53.007097,13.9999982 L59.9999992,13.9999982 L48.839868,59.9999982 Z"/></g></svg>